<?xml version="1.0" standalone="no"?>
<!DOCTYPE svg PUBLIC "-//W3C//DTD SVG 20010904//EN"
 "http://www.w3.org/TR/2001/REC-SVG-20010904/DTD/svg10.dtd">
<svg version="1.0" xmlns="http://www.w3.org/2000/svg"
 width="200.000000pt" height="106.000000pt" viewBox="0 0 200.000000 106.000000"
 preserveAspectRatio="xMidYMid meet">

<g transform="translate(0.000000,106.000000) scale(0.100000,-0.100000)"
fill="#000000" stroke="none">
<path d="M45 1049 c-3 -8 -4 -246 -3 -529 l3 -515 865 0 865 0 3 143 c2 126 5
145 22 162 57 57 -15 150 -79 103 -37 -28 -39 -68 -6 -103 25 -26 26 -29 23
-146 l-3 -119 -827 -3 -828 -2 0 115 0 115 40 6 c73 12 103 82 59 138 l-21 27
21 23 c29 30 28 80 -2 110 l-23 23 23 23 c32 30 31 83 -2 115 -13 14 -33 25
-44 25 -49 0 -51 4 -51 136 l0 124 828 -2 827 -3 3 -154 3 -154 46 -64 c38
-51 47 -71 45 -97 -4 -37 27 -76 59 -76 30 0 69 39 69 70 0 32 -43 73 -69 67
-10 -2 -35 21 -63 58 l-48 60 -2 165 -3 165 -390 -1 c-214 -1 -484 -3 -600 -5
-116 -2 -328 1 -472 5 -222 8 -263 7 -268 -5z m103 -341 c28 -28 -5 -78 -50
-78 -15 0 -18 9 -18 45 0 43 1 45 28 45 15 0 33 -5 40 -12z m0 -161 c16 -12
16 -42 0 -54 -7 -6 -25 -13 -40 -17 -28 -6 -28 -6 -28 44 0 50 0 50 28 44 15
-4 33 -11 40 -17z m1768 -16 c-9 -14 -33 -14 -41 -1 -4 6 -1 18 6 26 11 13 14
13 27 0 8 -8 11 -19 8 -25z m-1769 -143 c17 -13 17 -43 1 -55 -7 -6 -25 -13
-40 -15 -27 -5 -28 -4 -28 44 0 50 0 50 27 43 16 -4 34 -11 40 -17z m1631 -31
c2 -11 -3 -17 -17 -17 -23 0 -35 15 -26 31 10 15 39 6 43 -14z"/>
<path d="M1420 686 l0 -56 -360 0 -360 0 0 -110 0 -110 357 -2 358 -3 5 -54
c3 -30 10 -56 15 -58 14 -4 255 209 255 226 0 14 -231 216 -251 219 -17 3 -19
-3 -19 -52z m164 -124 l48 -45 -78 -73 c-44 -40 -82 -73 -86 -74 -4 0 -8 17
-10 38 l-3 37 -357 3 -358 2 0 70 0 70 360 0 360 0 0 41 0 41 38 -32 c20 -18
59 -53 86 -78z"/>
</g>
</svg>
