<?xml version="1.0" standalone="no"?>
<!DOCTYPE svg PUBLIC "-//W3C//DTD SVG 20010904//EN"
 "http://www.w3.org/TR/2001/REC-SVG-20010904/DTD/svg10.dtd">
<svg version="1.0" xmlns="http://www.w3.org/2000/svg"
 width="204.000000pt" height="230.000000pt" viewBox="0 0 204.000000 230.000000"
 preserveAspectRatio="xMidYMid meet">

<g transform="translate(0.000000,230.000000) scale(0.100000,-0.100000)"
fill="#000000" stroke="none">
<path d="M435 1783 c-32 -9 -65 -34 -81 -64 -12 -23 -14 -119 -14 -594 0 -617
-1 -601 57 -641 26 -17 49 -19 283 -19 234 0 257 2 283 19 50 34 52 42 57 356
l5 295 281 5 c264 5 283 6 304 25 52 47 64 115 30 170 -38 61 -58 65 -354 65
l-266 0 0 148 c0 130 -2 151 -20 180 -35 57 -62 62 -317 61 -125 -1 -237 -4
-248 -6z m494 -58 c16 -8 31 -22 35 -30 3 -9 6 -79 6 -156 l0 -139 -156 0
c-123 0 -163 -3 -190 -16 -80 -38 -98 -145 -35 -208 l31 -31 176 -5 175 -5 -1
-282 c0 -156 -3 -290 -6 -298 -15 -39 -55 -45 -284 -45 -230 0 -269 6 -284 45
-3 9 -6 267 -6 574 0 587 -1 574 45 599 33 18 459 16 494 -3z m634 -387 c50
-26 61 -77 26 -122 l-20 -26 -464 0 -464 0 -20 26 c-35 44 -25 94 24 122 29
16 887 17 918 0z"/>
<path d="M645 1513 c-86 -19 -151 -66 -186 -135 -83 -162 38 -358 221 -358 84
0 185 57 135 76 -9 4 -32 -1 -51 -10 -79 -37 -191 -7 -244 66 -83 114 -19 277
120 308 49 11 61 10 109 -9 56 -21 86 -15 75 14 -10 26 -132 59 -179 48z"/>
<path d="M585 908 c-31 -11 -95 -54 -107 -72 -4 -6 -1 -17 7 -25 12 -12 19
-11 52 12 54 37 86 47 151 47 43 0 67 -6 97 -25 77 -47 86 -50 95 -35 4 7 6
18 4 24 -7 17 -75 61 -113 74 -41 15 -145 14 -186 0z"/>
<path d="M589 820 c-52 -28 -66 -47 -47 -66 13 -14 19 -13 53 10 27 19 51 26
85 26 34 0 58 -7 85 -26 34 -23 40 -24 53 -10 13 13 13 18 2 31 -44 53 -163
71 -231 35z"/>
<path d="M623 748 c-28 -13 -37 -36 -22 -54 10 -12 16 -12 37 2 16 11 35 14
56 10 59 -12 70 -11 74 6 7 36 -93 61 -145 36z"/>
<path d="M649 664 c-17 -21 0 -49 31 -49 31 0 48 28 31 49 -8 9 -21 16 -31 16
-10 0 -23 -7 -31 -16z"/>
</g>
</svg>
