<?xml version="1.0" standalone="no"?>
<!DOCTYPE svg PUBLIC "-//W3C//DTD SVG 20010904//EN"
 "http://www.w3.org/TR/2001/REC-SVG-20010904/DTD/svg10.dtd">
<svg version="1.0" xmlns="http://www.w3.org/2000/svg"
 width="230.000000pt" height="230.000000pt" viewBox="0 0 230.000000 230.000000"
 preserveAspectRatio="xMidYMid meet">

<g transform="translate(0.000000,230.000000) scale(0.100000,-0.100000)"
fill="#000000" stroke="none">
<path d="M1214 1845 c-51 -23 -101 -87 -123 -160 -24 -76 -28 -203 -10 -283
l12 -50 57 5 c65 6 103 -9 144 -58 25 -29 28 -30 44 -16 43 39 105 57 200 57
73 0 101 4 132 20 91 46 91 136 2 268 -116 170 -331 272 -458 217z"/>
<path d="M1065 1840 c-22 -5 -62 -18 -90 -30 -27 -12 -61 -26 -74 -31 -47 -18
-15 -17 42 1 31 10 83 20 114 21 44 2 65 8 86 26 l29 23 -34 -1 c-18 -1 -51
-5 -73 -9z"/>
<path d="M979 1726 c-25 -7 -54 -18 -65 -24 -16 -10 -12 -11 21 -6 22 3 62 8
89 12 27 4 51 13 54 20 5 15 -37 15 -99 -2z"/>
<path d="M1010 1649 c-19 -4 -51 -14 -70 -23 -35 -14 -35 -14 30 -9 36 3 69 9
74 13 17 17 0 26 -34 19z"/>
<path d="M669 1571 c-126 -69 -204 -348 -149 -534 16 -55 85 -122 140 -137
105 -28 268 26 379 126 l51 46 -36 40 c-34 38 -35 43 -31 96 2 32 7 66 11 78
6 17 1 23 -34 39 -51 23 -98 74 -140 154 -53 99 -119 131 -191 92z"/>
<path d="M1093 1319 c-39 -25 -69 -95 -58 -136 24 -100 141 -143 219 -82 55
43 69 104 39 166 -33 70 -132 96 -200 52z m121 -64 c25 -25 29 -54 12 -80 -13
-20 -25 -25 -56 -25 -42 0 -60 18 -60 61 0 50 69 79 104 44z"/>
<path d="M1630 1177 c-7 -26 -17 -50 -21 -53 -14 -9 -10 -34 5 -34 10 0 19 19
26 55 15 71 8 94 -10 32z"/>
<path d="M1720 1183 c-7 -21 -23 -60 -37 -87 -23 -48 -25 -76 -4 -76 10 0 44
104 55 168 7 43 0 41 -14 -5z"/>
<path d="M1324 1183 c-23 -76 -67 -118 -135 -129 l-36 -6 0 -63 c1 -64 -2 -72
-77 -212 -37 -67 -31 -129 14 -167 50 -42 126 -53 238 -33 216 37 372 163 372
300 0 98 -98 216 -233 281 -94 46 -135 54 -143 29z"/>
<path d="M1783 1123 c-6 -34 -23 -85 -37 -114 -27 -52 -32 -84 -18 -107 6 -8
16 6 30 40 31 78 44 137 40 193 l-3 50 -12 -62z"/>
<path d="M846 881 c-5 -8 96 -111 110 -111 3 0 -10 18 -29 39 -19 22 -40 49
-47 60 -11 22 -25 27 -34 12z"/>
<path d="M652 824 c45 -56 129 -128 166 -141 9 -3 0 9 -21 26 -20 18 -58 61
-83 97 -25 35 -52 64 -59 64 -7 0 -21 3 -31 7 -11 4 0 -17 28 -53z"/>
<path d="M768 833 c20 -28 63 -70 112 -108 13 -11 1 10 -28 46 -29 37 -52 72
-52 78 0 6 -12 11 -26 11 l-25 0 19 -27z"/>
</g>
</svg>
