<?xml version="1.0" standalone="no"?>
<!DOCTYPE svg PUBLIC "-//W3C//DTD SVG 20010904//EN"
 "http://www.w3.org/TR/2001/REC-SVG-20010904/DTD/svg10.dtd">
<svg version="1.0" xmlns="http://www.w3.org/2000/svg"
 width="238.000000pt" height="193.000000pt" viewBox="0 0 238.000000 193.000000"
 preserveAspectRatio="xMidYMid meet">

<g transform="translate(0.000000,193.000000) scale(0.100000,-0.100000)"
fill="#000000" stroke="none">
<path d="M832 1510 c-73 -17 -117 -98 -117 -215 0 -38 4 -82 8 -96 6 -25 10
-26 51 -22 40 5 48 2 76 -25 l31 -31 35 21 c25 15 56 21 111 23 93 4 126 23
131 78 4 48 -20 97 -80 162 -73 80 -171 122 -246 105z"/>
<path d="M667 1486 c-37 -12 -73 -28 -80 -35 -8 -8 2 -7 30 3 23 8 62 16 88
18 51 5 100 38 55 38 -14 0 -56 -11 -93 -24z"/>
<path d="M1304 1460 c-53 -21 -54 -28 -54 -396 l0 -341 -77 -7 c-42 -3 -87 -6
-100 -6 -25 0 -25 0 5 25 35 29 62 82 62 119 0 71 -82 159 -187 201 -61 25
-73 24 -73 -4 0 -25 -46 -68 -80 -76 -25 -6 -28 -10 -32 -60 -3 -36 -13 -67
-32 -95 -15 -23 -30 -57 -33 -76 -5 -30 -1 -39 31 -68 l36 -35 0 -185 0 -186
368 2 367 3 1 55 c1 30 5 63 9 73 10 23 -1 47 -20 47 -21 0 -30 -27 -17 -53 6
-12 10 -41 9 -64 l-2 -43 -346 0 -347 0 -4 45 c-3 38 0 45 18 49 26 7 37 31
25 54 -6 11 -5 24 1 35 6 12 6 22 -2 32 -8 10 -8 18 1 33 10 16 10 23 0 36 -8
9 -20 16 -27 16 -9 0 -14 11 -14 31 0 24 4 30 15 25 21 -8 156 19 194 38 22
12 60 16 141 16 l110 0 0 -34 c0 -40 41 -86 76 -86 17 0 24 -6 24 -20 0 -18
-8 -20 -152 -22 l-153 -3 -3 -47 -3 -48 155 0 156 0 0 -25 c0 -14 3 -25 8 -25
4 1 31 22 60 48 l53 48 -50 47 -50 47 54 0 c49 0 56 -3 77 -32 12 -18 23 -37
24 -43 0 -5 2 -16 2 -22 3 -19 42 -16 49 4 4 11 -5 25 -30 46 -21 16 -37 33
-37 38 0 5 32 9 71 9 65 0 73 2 100 29 l29 29 0 196 0 196 185 0 c184 0 186 0
210 25 35 34 34 93 -1 126 -25 23 -31 24 -210 27 l-184 3 0 90 c0 105 -14 142
-61 158 -37 13 -314 14 -345 1z m350 -46 c12 -12 16 -37 16 -110 l0 -94 -100
0 c-71 0 -110 -5 -130 -15 -56 -29 -66 -85 -24 -134 l26 -31 114 0 114 0 0
-194 c0 -225 3 -218 -96 -224 l-64 -4 0 50 c0 29 -5 54 -12 58 -6 4 -58 6
-115 5 l-103 -3 0 334 c0 286 2 337 16 356 15 21 21 22 179 22 135 0 166 -3
179 -16z m428 -261 c24 -21 23 -48 -2 -73 -19 -19 -33 -20 -313 -20 -322 0
-337 3 -337 59 0 51 2 51 329 51 269 0 307 -2 323 -17z m-614 -473 c15 -12 22
-28 20 -42 -3 -22 -7 -23 -91 -23 -96 0 -117 11 -117 62 0 22 3 23 83 23 66
-1 86 -4 105 -20z m-655 -125 c1 -5 -5 -11 -14 -13 -9 -2 -16 4 -16 13 0 17
27 17 30 0z m595 -98 c-26 -22 -34 -25 -36 -12 -3 13 -27 15 -158 15 l-155 0
3 28 3 27 153 3 c134 2 152 4 152 19 0 13 9 8 36 -18 l35 -34 -33 -28z m-591
29 c-2 -6 -11 -12 -20 -14 -11 -2 -14 2 -10 17 3 12 11 17 19 14 8 -3 13 -11
11 -17z m743 14 c0 -5 -5 -10 -11 -10 -5 0 -7 5 -4 10 3 6 8 10 11 10 2 0 4
-4 4 -10z m-743 -76 c2 -6 -3 -14 -11 -17 -8 -3 -16 2 -19 14 -4 15 -1 19 10
17 9 -2 18 -8 20 -14z"/>
<path d="M1394 1261 c-177 -108 -39 -376 152 -296 37 15 43 43 8 36 -106 -19
-161 -5 -189 49 -49 95 24 211 124 196 20 -3 45 -6 56 -8 29 -4 32 15 4 29
-37 19 -119 16 -155 -6z"/>
<path d="M1405 871 c-48 -21 -72 -48 -58 -62 6 -6 19 -2 38 13 19 15 46 23 84
26 48 3 62 0 95 -23 30 -20 41 -23 47 -14 4 8 3 20 -4 28 -19 23 -89 51 -127
51 -19 0 -53 -9 -75 -19z"/>
<path d="M1422 820 c-23 -11 -42 -26 -42 -35 0 -19 17 -19 50 0 33 19 71 19
96 0 23 -17 57 -20 52 -3 -7 19 -50 45 -83 51 -19 4 -47 -2 -73 -13z"/>
<path d="M1438 769 c-27 -15 -23 -43 5 -34 12 4 29 7 37 7 8 0 25 -3 38 -7 16
-6 22 -3 22 8 0 32 -65 48 -102 26z"/>
<path d="M656 1425 c-27 -8 -53 -18 -59 -24 -7 -7 0 -8 24 -1 18 6 49 10 66
10 23 0 33 5 33 15 0 17 0 17 -64 0z"/>
<path d="M647 1365 c-40 -14 -66 -32 -32 -21 11 3 35 7 53 8 18 1 32 8 32 15
0 16 -5 16 -53 -2z"/>
<path d="M422 1301 c-57 -57 -100 -193 -88 -278 24 -179 169 -209 354 -73 l43
31 -26 31 c-27 32 -31 75 -11 121 6 12 4 17 -7 17 -25 0 -75 48 -104 99 -14
25 -36 54 -47 63 -33 27 -80 23 -114 -11z"/>
<path d="M740 1157 c-53 -27 -64 -89 -24 -136 20 -24 34 -31 61 -31 48 0 72
16 90 57 18 45 4 87 -38 108 -34 18 -56 19 -89 2z m74 -56 c14 -15 15 -24 6
-40 -19 -36 -80 -22 -80 19 0 39 46 52 74 21z"/>
<path d="M1092 1069 c-20 -53 -23 -69 -13 -69 6 0 15 18 21 41 12 45 6 66 -8
28z"/>
<path d="M1150 1074 c0 -10 -9 -39 -20 -63 -21 -46 -16 -80 6 -40 15 28 29
107 20 116 -3 4 -6 -2 -6 -13z"/>
<path d="M1195 1033 c-3 -16 -15 -51 -26 -78 -20 -52 -26 -106 -10 -89 14 14
39 96 46 148 7 50 -1 64 -10 19z"/>
<path d="M410 851 c0 -13 128 -131 142 -131 7 0 -4 15 -23 33 -18 18 -48 50
-65 70 -30 35 -54 48 -54 28z"/>
<path d="M590 825 c19 -19 38 -35 43 -35 15 0 -47 68 -62 69 -9 1 -1 -13 19
-34z"/>
<path d="M510 836 c0 -7 20 -32 45 -55 50 -46 72 -55 33 -13 -14 15 -33 39
-43 55 -19 29 -35 35 -35 13z"/>
</g>
</svg>
